<?xml version="1.0" ?>
<!-- Uploaded to: SVG Repo, www.svgrepo.com, Generator: SVG Repo Mixer Tools -->
<svg width="800px" height="800px" viewBox="0 0 64 64" xmlns="http://www.w3.org/2000/svg">
<defs>
<style>.cls-1{fill:#bcc2d7;}.cls-2{fill:#e43056;}.cls-3{fill:#81d0e9;}.cls-4{fill:#1e5366;}</style>
</defs>
<g id="main">
<path class="cls-1" d="M60.56,3.44A8.35,8.35,0,0,0,48.3,4L18,39.71,5.78,52a3.37,3.37,0,0,0-3.82.6,3.28,3.28,0,0,0,0,4.64L6.79,62a3.28,3.28,0,0,0,5.6-2.32,3.23,3.23,0,0,0-.37-1.5L24.28,46,60.05,15.7a8.35,8.35,0,0,0,.51-12.26Z"/>
<polygon class="cls-2" points="43.08 10.12 41.78 11.65 40.12 13.61 38.83 15.15 48.85 25.17 50.39 23.88 52.35 22.22 53.88 20.92 43.08 10.12"/>
<path class="cls-3" d="M59.91,41.59a13.5,13.5,0,0,0-1.41-1.42,13,13,0,0,0-16.91-.08,13.5,13.5,0,0,0-1.42,1.41,13,13,0,0,0,0,17,13.5,13.5,0,0,0,1.42,1.41,13,13,0,0,0,16.91-.08,13.5,13.5,0,0,0,1.41-1.42,13,13,0,0,0,0-16.82Z"/>
<path class="cls-4" d="M58.5,57a11,11,0,0,1,0-14,11.82,11.82,0,0,1,1.41-1.42,13.5,13.5,0,0,0-1.41-1.42,13.5,13.5,0,0,0-1.41,1.42,13,13,0,0,0,0,16.82,13.5,13.5,0,0,0,1.41,1.42,13.5,13.5,0,0,0,1.41-1.42A11.82,11.82,0,0,1,58.5,57Z"/>
<path class="cls-4" d="M43,41.5a11.9,11.9,0,0,0-1.43-1.41,13.5,13.5,0,0,0-1.42,1.41,11.81,11.81,0,0,1,1.43,1.4,11,11,0,0,1,0,14.2,11.81,11.81,0,0,1-1.43,1.4,13.5,13.5,0,0,0,1.42,1.41A11.9,11.9,0,0,0,43,58.5a13,13,0,0,0,0-17Z"/>
<path class="cls-2" d="M25.08,45.29l-.8.67-3.89,3.9-6.25-6.25,3.9-3.9.67-.79Z"/>
</g>
</svg>